<?xml version="1.0" encoding="utf-8"?>
<svg width="45" height="45" viewBox="0 0 45 45" fill="none" xmlns="http://www.w3.org/2000/svg">
  <g id="Group">
    <path id="Rectangle" d="M25 1.19209e-06C36.0472 5.33629e-07 45 8.9528 45 20L45 25C45 36.0472 36.0472 45 25 45L20 45C8.9528 45 2.14858e-06 36.0472 1.49012e-06 25L1.19209e-06 20C5.33629e-07 8.9528 8.9528 2.14858e-06 20 1.49012e-06L25 1.19209e-06Z" fill="#562E00" fill-opacity="0.588" transform="matrix(1 -0 0 1 0 0)" />
    <path id="Path" d="M13.4835 1.00446C13.4835 1.8005 13.134 2.01144 11.7981 2.01998C9.73923 2.03354 6.52653 3.40262 4.31886 5.20764C2.27508 6.87857 0 11.1983 0 13.4076C0 14.9675 0.108387 15.067 1.80523 15.067C3.35324 15.067 3.65454 14.8701 3.92162 13.6858C5.23056 7.87902 9.31864 4.37645 14.7872 4.37645C20.1184 4.37645 24.5285 8.0769 25.5828 13.4347C25.5828 13.4347 25.9039 15.067 25.9039 15.067L19.6937 15.067L16.5951 15.067L16.5951 13.552L21.781 13.552L22.3598 11.5513L7.77893 11.5513C7.77893 11.5513 8.42718 12.5579 9.85332 13.058C11.2795 13.5582 13.4835 13.552 13.4835 13.552L13.4835 20.5915L13.4835 26.1161C13.4835 26.1161 9.85332 26.1161 9.85332 26.1161C6.56905 26.1161 6.22315 26.2115 6.22315 27.1205C6.22315 28.0833 6.56905 28.125 14.5207 28.125C22.4723 28.125 22.8182 28.0833 22.8182 27.1205C22.8182 26.2276 22.4723 26.1161 19.7066 26.1161C19.7066 26.1161 16.5951 26.1161 16.5951 26.1161L16.5951 21.596L16.5951 17.0759L22.3598 17.0759L28.125 17.0759C28.125 17.0759 27.9139 13.8646 27.9139 13.8646C27.7526 11.4127 27.3362 10.0763 26.1528 8.21451C24.3444 5.36886 20.4524 2.63873 17.5674 2.19174C16.0635 1.9587 15.5579 1.64381 15.5579 0.940179C15.5579 0.334989 15.1886 0 14.5207 0C13.8294 0 13.4835 0.334989 13.4835 1.00446C13.4835 1.00446 13.4835 1.00446 13.4835 1.00446Z" fill="#FFFCFC" fill-rule="evenodd" transform="translate(7.734 8.437)" />
  </g>
</svg>